<?xml version="1.0" encoding="UTF-8" standalone="no"?>
<svg
   id="Layer_1"
   data-name="Layer 1"
   viewBox="0 0 3062.5918 841.80998"
   version="1.1"
   width="3062.5918"
   height="841.81"
   sodipodi:docname="logo_white.svg"
   inkscape:version="1.2.2 (1:1.2.2+202212051552+b0a8486541)"
   xmlns:inkscape="http://www.inkscape.org/namespaces/inkscape"
   xmlns:sodipodi="http://sodipodi.sourceforge.net/DTD/sodipodi-0.dtd"
   xmlns="http://www.w3.org/2000/svg"
   xmlns:svg="http://www.w3.org/2000/svg"
   xmlns:rdf="http://www.w3.org/1999/02/22-rdf-syntax-ns#"
   xmlns:cc="http://creativecommons.org/ns#"
   xmlns:dc="http://purl.org/dc/elements/1.1/">
  <sodipodi:namedview
     id="namedview22"
     pagecolor="#ffffff"
     bordercolor="#000000"
     borderopacity="0.25"
     inkscape:showpageshadow="2"
     inkscape:pageopacity="0.0"
     inkscape:pagecheckerboard="0"
     inkscape:deskcolor="#d1d1d1"
     showgrid="false"
     inkscape:zoom="0.49402601"
     inkscape:cx="437.22394"
     inkscape:cy="366.37747"
     inkscape:window-width="1920"
     inkscape:window-height="1039"
     inkscape:window-x="0"
     inkscape:window-y="18"
     inkscape:window-maximized="1"
     inkscape:current-layer="Layer_1" />
  <metadata
     id="metadata967">
    <rdf:RDF>
      <cc:Work
         rdf:about="">
        <dc:format>image/svg+xml</dc:format>
        <dc:type
           rdf:resource="http://purl.org/dc/dcmitype/StillImage" />
        <dc:title>logo</dc:title>
      </cc:Work>
    </rdf:RDF>
  </metadata>
  <defs
     id="defs932">
    <style
       id="style927">.cls-1{fill:none;}.cls-2{clip-path:url(#clip-path);}.cls-3{fill:#fff;}.cls-4{fill:#234278;}</style>
    <clipPath
       id="clip-path"
       transform="translate(973.25 1085.4)">
      <rect
         class="cls-1"
         x="-973.25"
         y="-1085.4"
         width="3115.2"
         height="1127.77"
         id="rect929" />
    </clipPath>
  </defs>
  <title
     id="title934">logo</title>
  <g
     id="g981"
     transform="translate(-5,-141.98)"
     style="fill:#ffffff;fill-opacity:1">
    <path
       class="cls-4"
       d="m -673.54,-508.48 a 42.15,42.15 0 0 0 -42.1,-42.09 42.15,42.15 0 0 0 -42.1,42.09 42.15,42.15 0 0 0 42.1,42.08 42.15,42.15 0 0 0 42.1,-42.08 z m -56.14,0 a 14.05,14.05 0 0 1 14,-14 14.05,14.05 0 0 1 14,14 14,14 0 0 1 -14,14 14,14 0 0 1 -14,-14"
       transform="translate(973.25,1085.4)"
       id="path940"
       style="fill:#ffffff;fill-opacity:1" />
    <polyline
       class="cls-4"
       points="299.7 198.11 327.77 198.11 327.77 226.17 299.7 226.17"
       id="polyline942"
       style="fill:#ffffff;fill-opacity:1" />
    <path
       class="cls-4"
       d="M -463,-620.72 A 112.39,112.39 0 0 0 -575.32,-508.47 112.4,112.4 0 0 0 -463,-396.23 112.39,112.39 0 0 0 -350.77,-508.47 112.39,112.39 0 0 0 -463,-620.72 Z m 0,140.31 a 28.1,28.1 0 0 1 -28.07,-28.06 28.09,28.09 0 0 1 28.07,-28.06 28.09,28.09 0 0 1 28,28.06 28.1,28.1 0 0 1 -28,28.06 z m 28.34,-76.24 a 56.63,56.63 0 0 0 -14.31,-6 v -28.75 a 83.71,83.71 0 0 1 34.64,14.4 z m -42.37,-6 a 55.35,55.35 0 0 0 -14.3,6 L -511.75,-577 a 83.64,83.64 0 0 1 34.68,-14.39 z m -34.15,25.81 a 56,56 0 0 0 -6,14.29 H -546 a 84,84 0 0 1 14.37,-34.67 z m -6,42.35 a 55.32,55.32 0 0 0 6,14.3 l -20.38,20.37 A 83.94,83.94 0 0 1 -546,-494.44 Z m 25.81,34.13 a 56.05,56.05 0 0 0 14.3,6 v 28.79 a 83.65,83.65 0 0 1 -34.68,-14.38 z m 42.36,6 a 54.87,54.87 0 0 0 14.31,-6 l 20.37,20.37 a 83.72,83.72 0 0 1 -34.67,14.43 z m 34.14,-25.8 a 56.13,56.13 0 0 0 6,-14.3 h 28.79 a 83.9,83.9 0 0 1 -14.37,34.67 z m 6,-42.36 a 54.82,54.82 0 0 0 -6,-14.29 l 20.38,-20.38 a 83.73,83.73 0 0 1 14.38,34.67 h -28.79"
       transform="translate(973.25,1085.4)"
       id="path944"
       style="fill:#ffffff;fill-opacity:1" />
    <path
       class="cls-4"
       d="m -617.41,-508.48 a 98.34,98.34 0 0 0 -98.24,-98.22 98.34,98.34 0 0 0 -98.23,98.22 98.34,98.34 0 0 0 98.23,98.21 98.34,98.34 0 0 0 98.24,-98.21 z m -168.4,0 a 70.24,70.24 0 0 1 70.17,-70.16 70.25,70.25 0 0 1 70.17,70.16 70.24,70.24 0 0 1 -70.17,70.15 70.24,70.24 0 0 1 -70.17,-70.15"
       transform="translate(973.25,1085.4)"
       id="path946"
       style="fill:#ffffff;fill-opacity:1" />
    <path
       class="cls-4"
       d="m -477.08,-312.06 h -224.53 a 14,14 0 0 0 -14,14 v 56.12 a 14,14 0 0 0 14,14 h 224.53 a 14,14 0 0 0 14,-14 V -298 a 14,14 0 0 0 -14,-14 z m -98.23,28.06 h 28.08 v 28.06 h -28.08 z m -28.07,28.06 h -28.07 V -284 h 28.07 z M -687.57,-284 h 28.07 v 28.06 h -28.07 z m 196.47,28.06 h -28.06 V -284 h 28.06 v 28.06"
       transform="translate(973.25,1085.4)"
       id="path948"
       style="fill:#ffffff;fill-opacity:1" />
    <path
       class="cls-4"
       d="m -252.54,-578.63 h -17.9 l 3.85,-97.65 a 14,14 0 0 0 -3.9,-10.26 14,14 0 0 0 -10.12,-4.33 h -98.24 V -747 h 30.66 a 42,42 0 0 0 39.51,28 42.14,42.14 0 0 0 42.1,-42 42.14,42.14 0 0 0 -42.1,-42.09 42,42 0 0 0 -39.51,28.09 h -44.68 a 14,14 0 0 0 -14,14 v 70.15 h -168.4 v -28.06 H -463 a 14,14 0 0 0 14,-14 v -98.22 h 28.06 v 14 a 14,14 0 0 0 14,14 h 56.14 a 14,14 0 0 0 14,-14 v -56.12 a 14,14 0 0 0 -14,-14 h -56.14 a 14,14 0 0 0 -14,14 v 14 H -463 a 14,14 0 0 0 -14,14 V -747 h -98.23 v -42.1 h 56.13 a 14,14 0 0 0 14,-14 v -58.7 a 42.05,42.05 0 0 0 28.06,-39.51 42.15,42.15 0 0 0 -42.1,-42.09 42.15,42.15 0 0 0 -42.1,42.09 42.05,42.05 0 0 0 28.07,39.51 v 44.67 h -42.1 V -853 a 90.54,90.54 0 0 0 -90.45,-90.42 h -1.53 a 90.49,90.49 0 0 0 -90.14,84.18 h -8 a 76.63,76.63 0 0 0 -76.57,76.54 v 10.5 a 76.59,76.59 0 0 0 -56.13,73.68 v 7.64 a 14.09,14.09 0 0 0 -10.12,4.31 14,14 0 0 0 -3.9,10.27 l 3.85,97.66 h -17.89 a 42.15,42.15 0 0 0 -42.1,42.1 v 112.24 a 42.15,42.15 0 0 0 42.1,42.09 h 28.68 c 14.93,158.32 147.63,280.6 308.12,280.6 160.49,0 293.12,-122.21 308.1,-280.6 h 28.7 a 42.15,42.15 0 0 0 42.1,-42.09 v -112.23 a 42.15,42.15 0 0 0 -42.1,-42.1 z M -308.68,-775 a 14.05,14.05 0 0 1 14,14 14.05,14.05 0 0 1 -14,14 14.05,14.05 0 0 1 -14,-14 14,14 0 0 1 14,-14 z m -84.2,-84.19 h 28.06 v 28.06 h -28.06 z m -126.31,-56.12 a 14,14 0 0 1 14,14 14,14 0 0 1 -14,14 14,14 0 0 1 -14,-14 14,14 0 0 1 14,-14 z m 280.67,378.82 v 14 h -56.13 v -28.07 h 42.1 a 14,14 0 0 1 14,14 z m -56.13,42.09 h 56.13 v 28.06 h -56.13 z M -870,-698.52 a 48.53,48.53 0 0 1 48.47,-48.48 h 21.68 v -28 h -14 v -7.64 a 48.54,48.54 0 0 1 48.49,-48.48 h 63.78 v -28.06 H -729 c 3.19,-31.43 29.5,-56.12 61.74,-56.12 h 1.53 a 62.44,62.44 0 0 1 62.35,62.3 v 162.12 H -870 Z m -56.13,147.95 H -884 v 28.07 h -56.13 v -14 a 14,14 0 0 1 14,-14 z m 42.1,84.19 h -56.13 v -28.06 H -884 Z m -56.13,42.09 v -14 H -884 v 28.06 h -42.1 a 14,14 0 0 1 -14,-14 z m 350.84,294.64 c -144.89,0 -265.2,-109.51 -280.26,-252.54 a 12.46,12.46 0 0 0 2.95,-0.68 14.55,14.55 0 0 0 2.23,-0.5 13.93,13.93 0 0 0 2.71,-1.82 13.33,13.33 0 0 0 1.68,-1.19 13.62,13.62 0 0 0 2,-2.92 11.72,11.72 0 0 0 1,-1.5 14,14 0 0 0 1.09,-5.43 v -168.36 a 14,14 0 0 0 -14,-14 h -10.16 l -3.31,-84.18 h 588.19 l -3.3,84.18 h -10.17 a 14,14 0 0 0 -14,14 v 168.36 a 14,14 0 0 0 1.1,5.41 12.94,12.94 0 0 0 1.05,1.59 13.86,13.86 0 0 0 1.92,2.84 12.17,12.17 0 0 0 1.84,1.28 13.38,13.38 0 0 0 2.55,1.73 13.85,13.85 0 0 0 2.33,0.52 12.85,12.85 0 0 0 2.86,0.66 c -14.75,142.74 -135.2,252.54 -280.3,252.54 z m 336.81,-280.61 h -42.1 v -28.06 h 56.13 v 14 a 14,14 0 0 1 -14,14"
       transform="translate(973.25,1085.4)"
       id="path950"
       style="fill:#ffffff;fill-opacity:1" />
    <polyline
       class="cls-4"
       points="313.74 310.35 285.67 310.35 285.67 338.4 257.61 338.4 257.61 366.47 341.81 366.47 341.81 338.4 313.74 338.4 313.74 310.35"
       id="polyline952"
       style="fill:#ffffff;fill-opacity:1" />
    <polyline
       class="cls-4"
       points="313.74 254.22 341.81 254.22 341.81 282.29 313.74 282.29"
       id="polyline954"
       style="fill:#ffffff;fill-opacity:1" />
    <polyline
       class="cls-4"
       points="215.5 282.29 243.57 282.29 243.57 310.34 215.5 310.34"
       id="polyline956"
       style="fill:#ffffff;fill-opacity:1" />
    <polyline
       class="cls-4"
       points="201.47 338.41 229.54 338.41 229.54 366.47 201.47 366.47"
       id="polyline958"
       style="fill:#ffffff;fill-opacity:1" />
    <path
       class="cls-4"
       d="m 35.26,-519.4 q -34.1,0 -56.6,-12.55 -22.5,-12.55 -32.44,-28.65 l 33.63,-23.68 q 8.53,14.2 22,21.07 13.47,6.87 30.55,6.87 18,-0.47 26.29,-6.63 8.29,-6.16 8.31,-16.1 0,-6.15 -2.6,-9.94 -2.6,-3.79 -8.53,-7.1 A 71.28,71.28 0 0 0 40.95,-602 q -9,-2.61 -21.79,-5 A 158.05,158.05 0 0 1 -2.39,-614.34 71.7,71.7 0 0 1 -21.34,-626 53.17,53.17 0 0 1 -34.6,-643.23 q -5,-10.18 -5,-24.86 0,-14.68 5.69,-25.81 a 54.19,54.19 0 0 1 15.16,-18.47 63.6,63.6 0 0 1 22.5,-10.89 104.9,104.9 0 0 1 27.71,-3.55 q 24.16,0 41,8.76 a 102,102 0 0 1 28.17,21.05 l -28.89,30.32 a 45.88,45.88 0 0 0 -16.34,-17 q -10.18,-6.15 -25.82,-6.63 -20.37,1.85 -24.16,19.84 a 21.08,21.08 0 0 0 1.9,9.47 16.67,16.67 0 0 0 6.63,6.63 72.31,72.31 0 0 0 12.79,5.68 193.42,193.42 0 0 0 20.37,5.69 q 11.84,2.84 23,6.63 a 77.19,77.19 0 0 1 20.84,10.89 54.55,54.55 0 0 1 15.63,17.76 q 5.92,10.65 5.92,26.28 a 71.81,71.81 0 0 1 -4,24.15 47.26,47.26 0 0 1 -13.26,19.65 q -9.24,8.29 -23.92,13.26 -14.68,4.97 -36,5 z m 125.53,-203.16 h 47.84 l -1.42,34.09 q 17.05,-38.35 55.9,-38.36 21.78,0 36,9.94 14.22,9.94 21.79,27.94 a 90,90 0 0 1 30.3,-29.35 q 18.94,-11.36 42.16,-9.94 35.52,1.42 55.18,23.2 19.66,21.78 19.66,60.14 v 121.23 h -47.84 l 0.95,-116.5 q 0,-20.84 -8.76,-31.73 -8.76,-10.89 -29.61,-10.89 -21.31,0 -32.92,12.55 -11.61,12.55 -11.61,37.65 v 108.92 h -47.84 l 0.95,-116.5 Q 291,-661 282,-671.65 q -9,-10.65 -28.42,-11.13 -21.31,0 -33.63,12.31 -12.32,12.31 -11.84,37.88 l 0.47,108.92 h -47.79 z m 435.3,113.66 q -15.63,0 -25.1,5.92 -9.47,5.92 -9.47,19.18 0,26 37.89,26 21.32,0 34.58,-9.47 13.26,-9.47 13.27,-26 v -15.63 z m 51.16,-30.31 q 0,-27 -10.18,-37.41 -10.18,-10.41 -29.62,-10.38 -19.89,0 -32,7.1 a 130.9,130.9 0 0 0 -20.13,14.21 l -27.47,-25.58 a 106.07,106.07 0 0 1 32.45,-25.57 q 19.18,-9.94 50.92,-9.94 a 103.57,103.57 0 0 1 33.39,5.21 72,72 0 0 1 26.55,15.57 q 11.13,10.42 17.53,26.76 6.4,16.34 6.39,38.12 v 117.44 h -47.84 l 0.95,-28.42 q -10.42,16.1 -25.11,24.39 -14.69,8.29 -36.95,8.29 a 104.94,104.94 0 0 1 -27.7,-3.58 63.68,63.68 0 0 1 -22.74,-11.13 53.15,53.15 0 0 1 -15.4,-19.65 q -5.68,-12.08 -5.68,-28.65 0,-15.63 5.92,-26.76 a 52.47,52.47 0 0 1 16.34,-18.47 73.09,73.09 0 0 1 24.63,-10.89 128.9,128.9 0 0 1 31.26,-3.55 z m 108.46,-226.36 h 47.84 v 341.91 h -47.84 z m 112.26,0 h 47.84 v 341.91 H 868 Z m 215.52,305.45 q 25.11,-1.42 40.26,-18.23 15.15,-16.81 15.16,-45.22 0,-27 -15.16,-43.8 -15.16,-16.8 -41.21,-16.81 -25.58,0 -40.73,16.81 -15.15,16.81 -17.05,43.8 0,28.41 15.63,45.22 15.63,16.81 43.1,18.23 z M 978.34,-722.56 h 49.26 l -1.42,36.93 a 69.43,69.43 0 0 1 26.29,-29.83 q 17.76,-11.37 43.34,-11.37 a 87.7,87.7 0 0 1 36,7.58 85.75,85.75 0 0 1 29.36,21.31 105.46,105.46 0 0 1 19.66,32.68 114.39,114.39 0 0 1 7.34,41.68 114.39,114.39 0 0 1 -7.34,41.67 106.05,106.05 0 0 1 -19.9,32.91 89.54,89.54 0 0 1 -29.61,21.78 86.47,86.47 0 0 1 -36.47,7.81 q -25.1,0 -42.39,-10.89 a 78.05,78.05 0 0 1 -26.76,-27.47 l 1.42,134.49 h -48.78 z m 262.41,0 h 48.31 v 198.89 h -48.31 z m 24.16,-45.44 a 31.74,31.74 0 0 1 -22.27,-8.76 q -9.48,-8.76 -9.48,-23 0,-13.73 9.48,-22.5 a 31.76,31.76 0 0 1 22.27,-8.76 31.75,31.75 0 0 1 22.27,8.76 q 9.46,8.76 9.46,22.5 0,14.2 -9.46,23 a 31.73,31.73 0 0 1 -22.27,8.76 z m 146.36,138.75 -69.16,-93.29 H 1399 l 39.31,63 40.27,-63 h 52.58 l -68.22,93.76 79.58,105.13 h -56.83 l -50.21,-77.19 -50.68,77.19 h -52.58 z m 323.51,-10.89 q -3.33,-20.36 -16.1,-33.62 -12.77,-13.26 -37.89,-14.24 -23.2,0 -38.85,12.31 -15.65,12.31 -20.36,36.46 z M 1622,-608.9 q 5.23,23.68 20.85,36.46 15.62,12.78 43.1,12.79 19.9,0 33.86,-6.63 a 118.5,118.5 0 0 0 23.97,-14.72 l 27.94,29.36 a 137.29,137.29 0 0 1 -35.28,23 q -20.13,9.24 -50,9.23 -25.59,0 -46.43,-7.81 -20.84,-7.81 -35.28,-21.55 a 96.27,96.27 0 0 1 -22.5,-32.91 106,106 0 0 1 -8,-41.44 101.73,101.73 0 0 1 8.29,-41.2 104.31,104.31 0 0 1 22.5,-32.91 101.29,101.29 0 0 1 33.61,-21.77 110.66,110.66 0 0 1 41.68,-7.81 q 25.59,0 45.23,9 a 92.41,92.41 0 0 1 32.93,24.81 q 13.27,15.87 19.65,37.89 a 128,128 0 0 1 5,44.28 z m 213.63,-256.67 h 47.85 v 341.91 h -47.85 z m 181.46,346.17 q -34.11,0 -56.6,-12.55 Q 1938,-544.5 1928,-560.6 l 33.63,-23.68 q 8.53,14.2 22,21.07 13.47,6.87 30.55,6.87 18,-0.47 26.29,-6.63 8.29,-6.16 8.28,-16.1 0,-6.15 -2.6,-9.94 -2.6,-3.79 -8.53,-7.1 a 71.27,71.27 0 0 0 -14.91,-5.92 q -9,-2.61 -21.79,-5 a 157.32,157.32 0 0 1 -21.55,-7.34 71.66,71.66 0 0 1 -19,-11.61 53.35,53.35 0 0 1 -13.27,-17.28 q -5,-10.18 -5,-24.86 0,-14.68 5.69,-25.81 a 54.21,54.21 0 0 1 15.16,-18.47 63.57,63.57 0 0 1 22.49,-10.89 105,105 0 0 1 27.71,-3.55 q 24.15,0 41,8.76 a 102,102 0 0 1 28.31,21.08 l -28.89,30.31 a 46,46 0 0 0 -16.34,-17 q -10.19,-6.15 -25.82,-6.63 -20.37,1.89 -24.16,19.89 a 21.07,21.07 0 0 0 1.9,9.47 16.71,16.71 0 0 0 6.64,6.63 71.91,71.91 0 0 0 12.78,5.68 194,194 0 0 0 20.37,5.68 q 11.84,2.84 23,6.63 a 77.05,77.05 0 0 1 20.85,10.89 54.5,54.5 0 0 1 15.63,17.76 q 5.92,10.65 5.92,26.28 a 71.94,71.94 0 0 1 -4,24.15 47.33,47.33 0 0 1 -13.34,19.63 q -9.25,8.29 -23.92,13.26 -14.67,4.97 -36,5"
       transform="translate(973.25,1085.4)"
       id="path960"
       style="fill:#ffffff;fill-opacity:1" />
    <path
       class="cls-4"
       d="m 961.65929,712.31609 q 21.18642,0 32.50801,13.62721 l -11.32159,9.80746 q -6.56125,-10.32364 -21.17494,-10.67924 -11.00042,0 -17.89432,5.25359 a 16.999601,16.999601 0 0 0 -6.88243,14.28104 q 0,7.86892 5.25359,12.46867 5.25358,4.59976 19.70669,9.02746 18.68579,5.483 26.48588,13.2372 7.80009,7.75421 7.80009,21.09465 0,15.42811 -11.47072,24.61616 -11.47072,9.18804 -29.41092,9.34863 a 50.907039,50.907039 0 0 1 -21.347,-4.26711 A 33.827142,33.827142 0 0 1 919.47,818.33992 l 11.82631,-9.68129 a 25.235576,25.235576 0 0 0 10.4957,9.68129 31.475645,31.475645 0 0 0 14.28105,3.36092 28.103255,28.103255 0 0 0 17.82549,-5.88448 q 7.46743,-5.82712 7.46743,-14.36134 0,-7.71979 -4.3474,-12.14748 -4.3474,-4.4277 -14.3728,-7.55921 l -13.30603,-4.42769 q -14.91194,-5.093 -21.09465,-12.72103 -6.18272,-7.62802 -6.15978,-18.8005 a 30.007394,30.007394 0 0 1 11.00042,-24.08851 q 11.00042,-9.26833 28.57355,-9.4404 z m 77.82881,2.95944 39.4134,91.10043 h 0.3212 l 39.7345,-91.10043 h 20.0394 v 116.2213 h -13.7649 v -97.50109 h -0.3326 l -41.6961,97.50109 h -8.3736 l -41.7075,-97.50109 h -0.3442 v 97.50109 h -13.7648 v -116.2213 z m 179.1267,0 49.4273,116.2213 h -16.059 l -11.8263,-28.56208 h -58.1565 l -11.9754,28.56208 h -15.6576 l 51.2282,-116.2213 z m -7.0545,17.73373 -24.0885,57.12417 h 47.4544 l -22.9415,-57.12417 z m 85.7092,-17.73373 v 103.41998 h 53.2471 v 12.80132 h -66.989 v -116.2213 z m 82.0959,0 v 103.41998 h 53.2012 v 12.80132 h -66.989 v -116.2213 z m 115.5904,0 32.6686,52.52441 33.6551,-52.52441 h 16.5867 l -43.3479,66.15162 v 50.06968 h -13.7648 v -50.06968 l -43.3708,-66.15162 z m 168.9522,0 v 12.80132 h -59.2692 v 36.44247 h 55.3348 v 12.80132 h -55.3348 v 41.3634 h 62.2287 v 12.80132 h -76.0279 V 715.27553 Z m 102.2844,0 v 12.80132 h -38.404 v 103.41998 h -13.7648 V 728.07685 h -38.4269 v -12.80132 z m 97.3749,0 q 18.3531,0 28.39,7.46744 10.0369,7.46744 10.186,21.09465 0,10.00246 -5.5059,16.74724 a 29.479741,29.479741 0 0 1 -14.8431,9.5207 v 0.33265 a 27.942665,27.942665 0 0 1 18.8005,9.10775 27.759133,27.759133 0 0 1 7.4559,19.50021 q 0,15.42812 -11.6542,23.88203 -11.6543,8.45392 -33.1389,8.56863 h -35.1578 v -116.2213 z m -1.973,49.24379 q 12.6178,0 19.202,-4.50799 6.5842,-4.508 6.5498,-14.36134 0,-17.20608 -24.3065,-17.56167 h -21.1405 v 36.44247 z m 4.2557,54.16472 q 12.4801,0 19.9475,-5.49447 a 17.355194,17.355194 0 0 0 7.4675,-14.69399 q 0,-10.50718 -7.3757,-15.84106 -7.3757,-5.33388 -20.1884,-5.33388 h -23.8018 v 41.3634 z m 138.7956,-103.41998 v 12.80132 h -59.315 v 36.44247 h 55.3462 v 12.80132 h -55.3462 v 41.3634 h 62.2286 v 12.80132 h -76.0279 V 715.27553 Z m 75.0415,0 49.4158,116.2213 h -16.059 l -11.8263,-28.56208 h -58.1909 l -11.9984,28.56208 h -15.5887 l 51.2282,-116.2213 z m -7.0775,17.73373 -24.0885,57.12417 h 47.4429 l -22.9414,-57.12417 z m 85.2275,-17.73373 v 69.97137 q 0,17.72226 7.5477,26.92177 7.5477,9.19952 22.4941,9.5207 14.9119,-0.17206 22.4137,-9.4404 7.5019,-9.26834 7.6395,-26.38265 v -70.57932 h 13.7649 v 72.39169 q 0,22.16143 -11.4707,34.41215 -11.4707,12.25073 -32.3474,12.31955 -20.5097,0 -32.118,-12.39984 -11.6084,-12.39985 -11.7461,-34.5498 v -72.26551 z m 180.2852,0 v 12.80132 h -38.4269 v 103.41998 h -13.7649 V 728.06538 h -38.4154 v -12.80132 z m 30.0418,0 v 116.2213 h -13.7649 V 715.27553 Z m 100.9423,0 v 12.80132 h -58.2942 v 38.41543 h 54.1877 v 12.85867 h -54.1877 v 52.19176 h -13.7648 V 715.27553 Z m 32.508,0 v 69.97137 q 0,17.72226 7.5478,26.92177 7.5477,9.19952 22.494,9.5207 14.912,-0.17206 22.4138,-9.4404 7.5019,-9.26834 7.6395,-26.38265 v -70.57932 h 13.7649 v 72.39169 q 0,22.16143 -11.4708,34.41215 -11.4707,12.25073 -32.3474,12.31955 -20.5096,0 -32.118,-12.39984 -11.6083,-12.39985 -11.7575,-34.5498 v -72.26551 z m 116.0837,0 v 103.41998 h 53.2012 v 12.80132 h -66.989 V 715.27553 h 13.7648"
       id="path962"
       style="stroke-width:1.14707;fill:#ffffff;fill-opacity:1" />
  </g>
</svg>
